<mxfile host="app.diagrams.net" modified="2023-12-15T07:34:59.046Z" agent="Mozilla/5.0 (Windows NT 10.0; Win64; x64) AppleWebKit/537.36 (KHTML, like Gecko) Chrome/119.0.0.0 Safari/537.36 OPR/105.0.0.0" etag="YhDUPnSvkFT6MaFVDnBb" version="22.1.9" type="github">
  <diagram name="Page-1" id="hQfu0kMgx-8FOcvt8yfI">
    <mxGraphModel dx="1174" dy="852" grid="1" gridSize="10" guides="1" tooltips="1" connect="1" arrows="1" fold="1" page="1" pageScale="1" pageWidth="850" pageHeight="1100" math="0" shadow="0">
      <root>
        <mxCell id="0" />
        <mxCell id="1" parent="0" />
        <mxCell id="07bvtPGDTVRRwzVDSZ9J-4" value="" style="endArrow=classic;html=1;rounded=0;edgeStyle=orthogonalEdgeStyle;entryX=0.5;entryY=0;entryDx=0;entryDy=0;" edge="1" parent="1">
          <mxGeometry width="50" height="50" relative="1" as="geometry">
            <mxPoint x="240" y="60" as="sourcePoint" />
            <mxPoint x="430" y="120" as="targetPoint" />
            <Array as="points">
              <mxPoint x="431" y="60" />
              <mxPoint x="431" y="120" />
            </Array>
          </mxGeometry>
        </mxCell>
        <mxCell id="07bvtPGDTVRRwzVDSZ9J-5" value="&lt;font style=&quot;font-size: 18px;&quot;&gt;&lt;b style=&quot;&quot;&gt;Yêu cầu&lt;/b&gt;&lt;/font&gt;" style="text;html=1;align=center;verticalAlign=middle;resizable=0;points=[];autosize=1;strokeColor=none;fillColor=none;" vertex="1" parent="1">
          <mxGeometry x="280" y="25" width="90" height="40" as="geometry" />
        </mxCell>
        <mxCell id="07bvtPGDTVRRwzVDSZ9J-6" value="&lt;b&gt;&lt;font style=&quot;font-size: 18px;&quot;&gt;Phân tích yêu cầu&lt;/font&gt;&lt;/b&gt;" style="shape=ext;double=1;rounded=1;whiteSpace=wrap;html=1;" vertex="1" parent="1">
          <mxGeometry x="330" y="120" width="200" height="110" as="geometry" />
        </mxCell>
        <mxCell id="07bvtPGDTVRRwzVDSZ9J-8" value="&lt;span style=&quot;font-size: 24px;&quot;&gt;&lt;b&gt;Người chơi&lt;/b&gt;&lt;/span&gt;" style="rounded=0;whiteSpace=wrap;html=1;" vertex="1" parent="1">
          <mxGeometry width="240" height="120" as="geometry" />
        </mxCell>
        <mxCell id="07bvtPGDTVRRwzVDSZ9J-13" value="&lt;b&gt;&lt;font style=&quot;font-size: 18px;&quot;&gt;1.0&lt;/font&gt;&lt;/b&gt;" style="text;html=1;align=center;verticalAlign=middle;resizable=0;points=[];autosize=1;strokeColor=none;fillColor=none;" vertex="1" parent="1">
          <mxGeometry x="405" y="115" width="50" height="40" as="geometry" />
        </mxCell>
        <mxCell id="07bvtPGDTVRRwzVDSZ9J-14" style="edgeStyle=orthogonalEdgeStyle;rounded=0;orthogonalLoop=1;jettySize=auto;html=1;exitX=0.5;exitY=1;exitDx=0;exitDy=0;" edge="1" parent="1" source="07bvtPGDTVRRwzVDSZ9J-6" target="07bvtPGDTVRRwzVDSZ9J-6">
          <mxGeometry relative="1" as="geometry" />
        </mxCell>
        <mxCell id="07bvtPGDTVRRwzVDSZ9J-21" style="edgeStyle=orthogonalEdgeStyle;rounded=0;orthogonalLoop=1;jettySize=auto;html=1;exitX=1;exitY=0.5;exitDx=0;exitDy=0;" edge="1" parent="1" source="07bvtPGDTVRRwzVDSZ9J-15" target="07bvtPGDTVRRwzVDSZ9J-19">
          <mxGeometry relative="1" as="geometry" />
        </mxCell>
        <mxCell id="07bvtPGDTVRRwzVDSZ9J-15" value="&lt;font style=&quot;font-size: 18px;&quot;&gt;&lt;b&gt;Điều chỉnh âm lượng&lt;/b&gt;&lt;/font&gt;" style="shape=ext;double=1;rounded=1;whiteSpace=wrap;html=1;" vertex="1" parent="1">
          <mxGeometry x="590" y="120" width="200" height="110" as="geometry" />
        </mxCell>
        <mxCell id="07bvtPGDTVRRwzVDSZ9J-17" value="&lt;b&gt;&lt;font style=&quot;font-size: 18px;&quot;&gt;2.0&lt;/font&gt;&lt;/b&gt;" style="text;html=1;align=center;verticalAlign=middle;resizable=0;points=[];autosize=1;strokeColor=none;fillColor=none;" vertex="1" parent="1">
          <mxGeometry x="665" y="115" width="50" height="40" as="geometry" />
        </mxCell>
        <mxCell id="07bvtPGDTVRRwzVDSZ9J-18" value="" style="edgeStyle=elbowEdgeStyle;elbow=horizontal;endArrow=classic;html=1;curved=0;rounded=0;endSize=8;startSize=8;exitX=1;exitY=0.5;exitDx=0;exitDy=0;entryX=0;entryY=0.5;entryDx=0;entryDy=0;" edge="1" parent="1" source="07bvtPGDTVRRwzVDSZ9J-6" target="07bvtPGDTVRRwzVDSZ9J-15">
          <mxGeometry width="50" height="50" relative="1" as="geometry">
            <mxPoint x="550" y="180" as="sourcePoint" />
            <mxPoint x="600" y="130" as="targetPoint" />
          </mxGeometry>
        </mxCell>
        <mxCell id="07bvtPGDTVRRwzVDSZ9J-19" value="&lt;span style=&quot;font-size: 18px;&quot;&gt;&lt;b&gt;Thực thi chức năng điều chỉnh&lt;/b&gt;&lt;/span&gt;" style="shape=ext;double=1;rounded=1;whiteSpace=wrap;html=1;" vertex="1" parent="1">
          <mxGeometry x="860" y="120" width="200" height="110" as="geometry" />
        </mxCell>
        <mxCell id="07bvtPGDTVRRwzVDSZ9J-23" value="&lt;font style=&quot;font-size: 18px;&quot;&gt;&lt;b&gt;3.0&lt;/b&gt;&lt;/font&gt;" style="text;html=1;align=center;verticalAlign=middle;resizable=0;points=[];autosize=1;strokeColor=none;fillColor=none;" vertex="1" parent="1">
          <mxGeometry x="935" y="115" width="50" height="40" as="geometry" />
        </mxCell>
        <mxCell id="07bvtPGDTVRRwzVDSZ9J-25" value="&lt;font style=&quot;font-size: 18px;&quot;&gt;&lt;b&gt;Hiển thị lại giao diện&lt;/b&gt;&lt;/font&gt;" style="shape=ext;double=1;rounded=1;whiteSpace=wrap;html=1;" vertex="1" parent="1">
          <mxGeometry x="590" y="330" width="200" height="110" as="geometry" />
        </mxCell>
        <mxCell id="07bvtPGDTVRRwzVDSZ9J-26" value="" style="edgeStyle=segmentEdgeStyle;endArrow=classic;html=1;curved=0;rounded=0;endSize=8;startSize=8;entryX=1;entryY=0.5;entryDx=0;entryDy=0;" edge="1" parent="1" target="07bvtPGDTVRRwzVDSZ9J-25">
          <mxGeometry width="50" height="50" relative="1" as="geometry">
            <mxPoint x="960" y="230" as="sourcePoint" />
            <mxPoint x="960" y="260" as="targetPoint" />
            <Array as="points">
              <mxPoint x="960" y="385" />
            </Array>
          </mxGeometry>
        </mxCell>
        <mxCell id="07bvtPGDTVRRwzVDSZ9J-31" value="" style="line;strokeWidth=2;html=1;" vertex="1" parent="1">
          <mxGeometry x="590" y="350" width="200" height="10" as="geometry" />
        </mxCell>
        <mxCell id="07bvtPGDTVRRwzVDSZ9J-33" value="" style="line;strokeWidth=2;html=1;" vertex="1" parent="1">
          <mxGeometry x="860" y="145" width="200" height="10" as="geometry" />
        </mxCell>
        <mxCell id="07bvtPGDTVRRwzVDSZ9J-35" value="" style="line;strokeWidth=2;html=1;" vertex="1" parent="1">
          <mxGeometry x="590" y="145" width="200" height="10" as="geometry" />
        </mxCell>
        <mxCell id="07bvtPGDTVRRwzVDSZ9J-37" value="" style="line;strokeWidth=2;html=1;" vertex="1" parent="1">
          <mxGeometry x="330" y="145" width="200" height="10" as="geometry" />
        </mxCell>
        <mxCell id="07bvtPGDTVRRwzVDSZ9J-38" value="&lt;b&gt;&lt;font style=&quot;font-size: 18px;&quot;&gt;4.0&lt;/font&gt;&lt;/b&gt;" style="text;html=1;align=center;verticalAlign=middle;resizable=0;points=[];autosize=1;strokeColor=none;fillColor=none;" vertex="1" parent="1">
          <mxGeometry x="660" y="325" width="50" height="40" as="geometry" />
        </mxCell>
        <mxCell id="07bvtPGDTVRRwzVDSZ9J-39" value="" style="edgeStyle=elbowEdgeStyle;elbow=horizontal;endArrow=classic;html=1;curved=0;rounded=0;endSize=8;startSize=8;exitX=0;exitY=0.5;exitDx=0;exitDy=0;entryX=0.5;entryY=1;entryDx=0;entryDy=0;" edge="1" parent="1" source="07bvtPGDTVRRwzVDSZ9J-25" target="07bvtPGDTVRRwzVDSZ9J-8">
          <mxGeometry width="50" height="50" relative="1" as="geometry">
            <mxPoint x="480" y="380" as="sourcePoint" />
            <mxPoint x="120" y="130" as="targetPoint" />
            <Array as="points">
              <mxPoint x="120" y="385" />
            </Array>
          </mxGeometry>
        </mxCell>
        <mxCell id="07bvtPGDTVRRwzVDSZ9J-40" value="&lt;font style=&quot;font-size: 18px;&quot;&gt;&lt;b style=&quot;&quot;&gt;HIển thị&lt;/b&gt;&lt;/font&gt;" style="text;html=1;align=center;verticalAlign=middle;resizable=0;points=[];autosize=1;strokeColor=none;fillColor=none;" vertex="1" parent="1">
          <mxGeometry x="285" y="345" width="90" height="40" as="geometry" />
        </mxCell>
      </root>
    </mxGraphModel>
  </diagram>
</mxfile>
